<?xml version="1.0" encoding="utf-8"?>
<!-- Generator: Adobe Illustrator 25.0.0, SVG Export Plug-In . SVG Version: 6.00 Build 0)  -->
<svg version="1.1" id="Layer_1" xmlns="http://www.w3.org/2000/svg" xmlns:xlink="http://www.w3.org/1999/xlink" x="0px" y="0px"
	 viewBox="0 0 16 16" style="enable-background:new 0 0 16 16;" xml:space="preserve">
<style type="text/css">
	.st0{fill:#FFE777;}
	.st1{fill:#FFD200;}
</style>
<g>
	<path class="st0" d="M7.3,12C7.2,12,7.2,12,7.3,12c-0.2,0-0.3-0.1-0.4-0.2L5.5,9.9C5.3,9.7,5.4,9.4,5.6,9.2C5.8,9,6.1,9.1,6.3,9.3
		l1,1.4l2.4-2.4c0.2-0.2,0.5-0.2,0.7,0c0.2,0.2,0.2,0.5,0,0.7l-2.8,2.8C7.5,11.9,7.4,12,7.3,12L7.3,12z"/>
	<path class="st1" d="M12.5,3.5H3.5C2.7,3.5,2.1,4.2,2.1,5v1.5v5.9c0,0.8,0.7,1.5,1.5,1.5h8.9c0.8,0,1.5-0.7,1.5-1.5V6.5V5
		C13.9,4.2,13.3,3.5,12.5,3.5z M12.9,12.5c0,0.3-0.2,0.5-0.5,0.5H3.5c-0.3,0-0.5-0.2-0.5-0.5V7h9.9L12.9,12.5L12.9,12.5z"/>
	<g>
		<path class="st0" d="M5,2.1H4.5C4.3,2.1,4,2.3,4,2.6v2C4,4.8,4.3,5,4.5,5H5c0.3,0,0.5-0.2,0.5-0.5v-2C5.5,2.3,5.3,2.1,5,2.1z"/>
		<path class="st0" d="M11.5,2.1H11c-0.3,0-0.5,0.2-0.5,0.5v2C10.5,4.8,10.7,5,11,5h0.5C11.7,5,12,4.8,12,4.5v-2
			C12,2.3,11.7,2.1,11.5,2.1z"/>
	</g>
</g>
</svg>
