<?xml version="1.0" encoding="utf-8"?>
<!-- Generator: Adobe Illustrator 25.0.0, SVG Export Plug-In . SVG Version: 6.00 Build 0)  -->
<svg version="1.1" id="Layer_1" xmlns="http://www.w3.org/2000/svg" xmlns:xlink="http://www.w3.org/1999/xlink" x="0px" y="0px"
	 viewBox="0 0 16 16" style="enable-background:new 0 0 16 16;" xml:space="preserve">
<style type="text/css">
	.st0{fill:#FFD200;}
</style>
<g>
	<g>
		<path class="st0" d="M8,14.7c-3.7,0-6.7-3-6.7-6.7s3-6.7,6.7-6.7s6.7,3,6.7,6.7S11.7,14.7,8,14.7z M8,1.8C4.6,1.8,1.8,4.6,1.8,8
			s2.8,6.2,6.2,6.2s6.2-2.8,6.2-6.2S11.4,1.8,8,1.8z"/>
	</g>
	<g>
		<path class="st0" d="M11.1,11.4c-0.1,0-0.1,0-0.2-0.1L7.8,8.2C7.7,8.1,7.7,8.1,7.7,8V3.8c0-0.2,0.1-0.3,0.3-0.3s0.3,0.1,0.3,0.3
			v4.1l3,3c0.1,0.1,0.1,0.3,0,0.4C11.2,11.3,11.2,11.4,11.1,11.4z"/>
	</g>
</g>
</svg>
