<?xml version="1.0" encoding="utf-8"?>
<!-- Generator: Adobe Illustrator 24.3.0, SVG Export Plug-In . SVG Version: 6.00 Build 0)  -->
<svg version="1.1" id="Capa_1" xmlns="http://www.w3.org/2000/svg" xmlns:xlink="http://www.w3.org/1999/xlink" x="0px" y="0px"
	 viewBox="0 0 15.2 16.6" style="enable-background:new 0 0 15.2 16.6;" xml:space="preserve">
<style type="text/css">
	.st0{fill:#FFFFFF;stroke:#00D35A;stroke-miterlimit:10;}
	.st1{fill:#00D35A;}
</style>
<path class="st0" d="M7.6,1.6c-3.7,0-6.7,3-6.7,6.7s3,6.7,6.7,6.7s6.7-3,6.7-6.7S11.3,1.6,7.6,1.6z M7.6,14.5
	c-3.4,0-6.2-2.8-6.2-6.2s2.8-6.2,6.2-6.2s6.2,2.8,6.2,6.2S11,14.5,7.6,14.5z"/>
<g>
	<path class="st1" d="M5.3,9.7L5.1,9H3.9L3.6,9.7H3l1.2-2.8h0.6L6,9.7H5.3z M4.5,7.6L4.1,8.5h0.7L4.5,7.6z"/>
	<path class="st1" d="M7.5,9.7H6.4V6.9h1.1C8.4,6.9,9,7.5,9,8.2v0C9,9,8.4,9.7,7.5,9.7z M8.3,8.3c0-0.5-0.3-0.8-0.8-0.8H7v1.7h0.5
		C8,9.1,8.3,8.8,8.3,8.3L8.3,8.3z"/>
	<path class="st1" d="M10.6,9.7H9.5V6.9h1.1c0.9,0,1.5,0.6,1.5,1.4v0C12.1,9,11.5,9.7,10.6,9.7z M11.5,8.3c0-0.5-0.3-0.8-0.8-0.8
		h-0.5v1.7h0.5C11.1,9.1,11.5,8.8,11.5,8.3L11.5,8.3z"/>
</g>
</svg>
