<?xml version="1.0" encoding="utf-8"?>
<!-- Generator: Adobe Illustrator 24.3.0, SVG Export Plug-In . SVG Version: 6.00 Build 0)  -->
<svg version="1.1" id="Capa_1" xmlns="http://www.w3.org/2000/svg" xmlns:xlink="http://www.w3.org/1999/xlink" x="0px" y="0px"
	 viewBox="0 0 15.2 16.6" style="enable-background:new 0 0 15.2 16.6;" xml:space="preserve">
<style type="text/css">
	.st0{fill:#FFFFFF;stroke:#00D35A;stroke-miterlimit:10;}
</style>
<g>
	<path class="st0" d="M7.6,1.6c-3.7,0-6.7,3-6.7,6.7s3,6.7,6.7,6.7s6.7-3,6.7-6.7S11.3,1.6,7.6,1.6z M7.6,14.5
		c-3.4,0-6.2-2.8-6.2-6.2s2.8-6.2,6.2-6.2s6.2,2.8,6.2,6.2S11,14.5,7.6,14.5z"/>
	<path class="st0" d="M10.8,8.1h-3V5.2C7.8,5.1,7.7,5,7.6,5S7.3,5.1,7.3,5.2v2.8h-3c-0.1,0-0.3,0.1-0.3,0.3c0,0.1,0.1,0.3,0.3,0.3h3
		v3.1c0,0.1,0.1,0.3,0.3,0.3s0.3-0.1,0.3-0.3V8.6h3c0.1,0,0.3-0.1,0.3-0.3C11.1,8.2,11,8.1,10.8,8.1z"/>
</g>
</svg>
