<?xml version="1.0" encoding="utf-8"?>
<!-- Generator: Adobe Illustrator 25.1.0, SVG Export Plug-In . SVG Version: 6.00 Build 0)  -->
<svg version="1.1" id="Layer_1" xmlns="http://www.w3.org/2000/svg" xmlns:xlink="http://www.w3.org/1999/xlink" x="0px" y="0px"
	 viewBox="0 0 305 230.8" style="enable-background:new 0 0 305 230.8;" xml:space="preserve">
<style type="text/css">
	.st0{fill:#263B80;}
	.st1{fill:#F4D44E;}
</style>
<g>
	<path class="st0" d="M53.4,129.7l-9.1,15.7l-0.3,0c-18.4-0.9-32.8-16.1-32.8-34.5c0-19.1,15.5-34.6,34.6-34.6
		c8.2,0,15.8,2.7,22,7.9l0.3,0.3l-9.4,16.4l-0.5-0.6c-3-3.6-7.6-5.8-12.4-5.8c-9,0-16.3,7.3-16.3,16.3c0,9,7.3,16.3,16.3,16.3
		c2.6,0,5.1-0.6,7.5-1.9v-12.5l19.6-4.2v42l-19.6,4.2V129.7z"/>
	<path class="st1" d="M45.7,76.8c8.3,0,15.8,2.9,21.7,7.8l-8.8,15.4c-3-3.7-7.7-6-12.8-6c-9.3,0-16.8,7.5-16.8,16.8
		s7.5,16.8,16.8,16.8c3,0,5.6-0.8,8-2.1v-12.4l18.6-4v41l-18.6,4v-26.2l-9.9,17c-18-0.9-32.3-15.8-32.3-34
		C11.6,92.1,26.9,76.8,45.7,76.8 M45.7,75.8c-19.4,0-35.1,15.7-35.1,35.1c0,18.7,14.6,34.1,33.3,35l0.6,0l0.3-0.5l8-13.8v22.5v1.2
		l1.2-0.3l18.6-4l0.8-0.2v-0.8v-41v-1.2l-1.2,0.3l-18.6,4l-0.8,0.2v0.8v11.8c-2.3,1.1-4.6,1.7-7,1.7c-8.7,0-15.8-7.1-15.8-15.8
		s7.1-15.8,15.8-15.8c4.7,0,9.2,2.1,12,5.6l0.9,1.1l0.7-1.3L68.3,85l0.4-0.7l-0.6-0.5C61.8,78.5,54,75.8,45.7,75.8L45.7,75.8z"/>
</g>
<g>
	<path class="st0" d="M113.5,145.5c-19.1,0-34.6-15.5-34.6-34.6s15.5-34.6,34.6-34.6c19.1,0,34.6,15.5,34.6,34.6
		S132.5,145.5,113.5,145.5z M113.5,94.5c-9,0-16.3,7.3-16.3,16.3c0,9,7.3,16.3,16.3,16.3s16.3-7.3,16.3-16.3
		C129.8,101.8,122.4,94.5,113.5,94.5z"/>
	<path class="st1" d="M113.4,76.8c18.8,0,34.1,15.2,34.1,34.1S132.2,145,113.4,145c-18.9,0-34.1-15.3-34.1-34.1
		S94.6,76.8,113.4,76.8 M113.4,127.6c9.3,0,16.8-7.5,16.8-16.8c0-9.3-7.5-16.8-16.8-16.8s-16.8,7.5-16.8,16.8
		C96.6,120.1,104.1,127.6,113.4,127.6 M113.4,75.8c-19.4,0-35.1,15.7-35.1,35.1S94.1,146,113.4,146s35.1-15.7,35.1-35.1
		S132.8,75.8,113.4,75.8L113.4,75.8z M113.4,126.6c-8.7,0-15.8-7.1-15.8-15.8c0-8.7,7.1-15.8,15.8-15.8s15.8,7.1,15.8,15.8
		C129.2,119.5,122.2,126.6,113.4,126.6L113.4,126.6z"/>
</g>
<g>
	<path class="st0" d="M173.7,143.5v-15.7c-11.8-3.9-19.7-14.8-19.7-27.3V77.8h18.3v22.8c0,5.7,4.7,10.4,10.4,10.4
		s10.4-4.7,10.4-10.4V77.8h18.3l0.1,22.8c0,12.4-7.8,23.3-19.5,27.3v15.7H173.7z"/>
	<path class="st1" d="M210.8,78.2l0.1,22.3c0,12.6-8.2,23.2-19.5,26.9v15.6h-17.3v-15.6c-11.4-3.6-19.7-14.3-19.7-26.9V78.2h17.3
		v22.3c0,6,4.9,10.9,10.9,10.9s10.9-4.9,10.9-10.9V78.2H210.8 M211.8,77.2h-1h-17.3h-1v1v22.3c0,5.5-4.4,9.9-9.9,9.9
		s-9.9-4.4-9.9-9.9V78.2v-1h-1h-17.3h-1v1v22.3c0,12.6,7.9,23.6,19.7,27.6v14.9v1h1h17.3h1v-1v-14.9c11.7-4.1,19.5-15.2,19.5-27.6
		l-0.1-22.3L211.8,77.2L211.8,77.2z"/>
</g>
<g>
	<path class="st0" d="M262.7,143.5v-11.3h-25.8v11.3h-18.2V108c0-17.1,14-31.1,31.1-31.1s31.1,14,31.1,31.1v35.6H262.7z
		 M262.7,113.9V108c0-7.1-5.8-12.9-12.9-12.9s-12.9,5.8-12.9,12.9v5.8H262.7z"/>
	<path class="st1" d="M249.7,77.4c16.9,0,30.6,13.7,30.6,30.6v35.1h-17.2v-11.3h-26.8v11.3h-17.2V108
		C219.1,91.1,232.8,77.4,249.7,77.4 M236.3,114.3h26.8v-6.3c0-7.4-6-13.4-13.4-13.4c-7.4,0-13.4,6-13.4,13.4V114.3 M249.7,76.4
		c-17.4,0-31.6,14.2-31.6,31.6v35.1v1h1h17.2h1v-1v-10.3h24.8v10.3v1h1h17.2h1v-1V108C281.3,90.5,267.2,76.4,249.7,76.4L249.7,76.4z
		 M237.3,113.3v-5.3c0-6.8,5.6-12.4,12.4-12.4s12.4,5.6,12.4,12.4v5.3H237.3L237.3,113.3z"/>
</g>
</svg>
