<?xml version="1.0" encoding="utf-8"?>
<!-- Generator: Adobe Illustrator 24.3.0, SVG Export Plug-In . SVG Version: 6.00 Build 0)  -->
<svg version="1.1" id="Layer_1" xmlns="http://www.w3.org/2000/svg" xmlns:xlink="http://www.w3.org/1999/xlink" x="0px" y="0px"
	 viewBox="0 0 305 230.8" style="enable-background:new 0 0 305 230.8;" xml:space="preserve">
<style type="text/css">
	.st0{fill:#FFFFFF;}
</style>
<rect x="6" y="103.6" class="st0" width="293" height="4"/>
<g>
	<g>
		<path class="st0" d="M54,62.6c-2.4,1.3-5.2,2.1-8.2,2.1c-9.3,0-16.8-7.5-16.8-16.8s7.5-16.8,16.8-16.8c5.1,0,9.8,2.3,12.8,6
			l8.8-15.4c-5.9-4.9-13.4-7.8-21.7-7.8c-18.8,0-34.1,15.3-34.1,34.1c0,18.2,14.3,33.1,32.3,34l9.9-17v26.2l18.6-4v-41l-18.6,4v12.4
			H54z"/>
		<path class="st0" d="M113.4,13.9c-18.8,0-34.1,15.3-34.1,34.1s15.2,34.1,34.1,34.1c18.8,0,34.1-15.2,34.1-34.1
			S132.2,13.9,113.4,13.9z M113.4,64.7c-9.3,0-16.8-7.5-16.8-16.8s7.5-16.8,16.8-16.8s16.8,7.5,16.8,16.8
			C130.2,57.2,122.7,64.7,113.4,64.7z"/>
		<path class="st0" d="M193.5,15.4v22.3c0,6-4.9,10.9-10.9,10.9s-10.9-4.9-10.9-10.9V15.4h-17.3v22.3c0,12.6,8.3,23.3,19.7,26.9
			v15.6h17.3V64.6c11.3-3.7,19.5-14.3,19.5-26.9l-0.1-22.3C210.8,15.4,193.5,15.4,193.5,15.4z"/>
		<path class="st0" d="M249.7,14.5c-16.9,0-30.6,13.7-30.6,30.6v35.1h17.2V68.9h26.8v11.3h17.2V45.1
			C280.3,28.2,266.6,14.5,249.7,14.5z M263.1,51.5h-26.8v-6.3c0-7.4,6-13.4,13.4-13.4c7.4,0,13.4,6,13.4,13.4V51.5z"/>
		<g>
			<path class="st0" d="M288.2,70.5c-2.8,0-5.1,2.3-5.1,5.1c0,2.8,2.3,5.1,5.1,5.1c2.8,0,5.1-2.3,5.1-5.1
				C293.2,72.7,291,70.5,288.2,70.5z M288.2,80.2c-2.6,0-4.6-2.1-4.6-4.6c0-2.6,2-4.6,4.6-4.6s4.5,2,4.5,4.6
				C292.7,78.1,290.8,80.2,288.2,80.2z"/>
			<path class="st0" d="M290.5,74.2c0-1.1-0.6-1.7-2-1.7h-2.3v6h0.5v-2.8h1.6l1.8,2.8h0.6l-1.8-2.8
				C289.8,75.7,290.5,75.2,290.5,74.2z M288.1,75.3h-1.3V73h1.7c0.7,0,1.5,0.3,1.5,1.2C290,75.2,289,75.3,288.1,75.3z"/>
		</g>
	</g>
</g>
<g>
	<path d="M119.7,145.3c0.2,0.5,0.7,0.9,1.3,0.9c0.2,0,0.3,0,0.5-0.1l1.4,4c0.7,1.9,0.6,4.1-0.3,5.9c-1.2,2.5-1.3,5.4-0.3,8l1.1,3.1
		c0.2,0.5,0.7,0.9,1.3,0.9c0.2,0,0.3,0,0.5-0.1c0.7-0.3,1-1,0.8-1.7l-0.1-0.4l15-5.5l2.2,6c0.3,0.7,1,1,1.7,0.8c0.7-0.2,1-1,0.8-1.7
		l-2.2-6.1l2.9-2.9c0.2-0.3,0.6-0.4,0.9-0.4c0.4,0,0.7,0.1,0.9,0.4l0.4,0.4v22c0,2.2,1.8,4,4,4s4-1.8,4-4v-16.6
		c2.1-1.9,5-2.5,7.7-1.7c2.7,0.8,4.7,3,5.4,5.7c0.2,0.6,0.7,1,1.3,1h0.3c0.5-0.1,0.8-0.5,0.9-0.9c0,0,0,0.1,0,0.1
		c0.2,0.6,0.7,1,1.3,1c0.1,0,0.2,0,0.3,0l5.5-1.5c0.7-0.2,1.1-0.9,0.9-1.6c-0.2-0.7-0.9-1.1-1.6-1l-5.5,1.5
		c-0.4,0.1-0.8,0.5-0.9,0.9c0,0,0-0.1,0-0.1c-0.2-0.8-0.5-1.6-0.9-2.4l8.6-15.1c1.5-2.4,4.7-3.2,7.2-1.8c2.5,1.4,3.4,4.6,2.1,7.1
		l-6.7,11.5c-0.2,0.3-0.2,0.7-0.1,1c0.1,0.3,0.3,0.6,0.6,0.8c0.2,0.1,0.4,0.2,0.7,0.2c0.5,0,0.9-0.3,1.1-0.7l6.7-11.5
		c2.2-3.8,0.9-8.7-2.9-10.9c-3.8-2.2-8.7-0.9-10.9,2.9l-8,13.9c-0.5-0.6-1.1-1.1-1.8-1.5c2.1-1.2,3.4-3.4,3.4-5.8
		c0-0.7-0.6-1.3-1.3-1.3h-2.7c-1.4,0-2.8,0.5-4,1.3v-1.3c0-0.7-0.6-1.3-1.3-1.3c-0.7,0-1.3,0.6-1.3,1.3v5.4c-1.4,0.2-2.8,0.6-4,1.3
		v-10.1c0-0.7-0.6-1.3-1.3-1.3c-0.7,0-1.3,0.6-1.3,1.3v30c0,0.7-0.6,1.3-1.3,1.3s-1.3-0.6-1.3-1.3v-40c0-0.7,0.6-1.3,1.3-1.3
		s1.3,0.6,1.3,1.3v5.3c0,0.7,0.6,1.3,1.3,1.3c0.7,0,1.3-0.6,1.3-1.3v-5.3c0-2.2-1.8-4-4-4s-4,1.8-4,4v14.7c-1.4-0.5-3.1-0.2-4.2,0.9
		l-2.1,2.1c-1-2.5-2.9-4.6-5.3-5.7c-1.9-0.9-3.3-2.5-4-4.4l-1.4-4c0.7-0.3,1-1,0.8-1.7l-1.9-5c-0.3-0.7-1-1-1.7-0.8l-10,3.7
		c-0.7,0.3-1,1-0.8,1.7L119.7,145.3z M167.2,154.8h1.1c-0.6,1.6-2.1,2.7-3.8,2.7h-1.1C163.9,155.9,165.5,154.8,167.2,154.8z
		 M135.8,153.2c1.9,0.9,3.3,2.5,4,4.4l0.1,0.2l-15,5.5l-0.1-0.2c-0.7-1.9-0.6-4.1,0.3-5.9c1.2-2.5,1.3-5.4,0.3-8l-1.4-4l5-1.8l1.4,4
		C131.3,149.9,133.3,152.1,135.8,153.2z M128.4,137.9l0.9,2.5l-7.5,2.7l-1-2.5L128.4,137.9z"/>
	<path d="M176.1,197.7l0.8-5.3c0.1-0.4-0.1-0.8-0.3-1.1c-0.3-0.3-0.6-0.5-1-0.5h-26.1c-0.7,0-1.3,0.6-1.3,1.3c0,0.7,0.6,1.3,1.3,1.3
		H174l-0.4,2.7h-43.4c-0.7,0-1.3,0.6-1.3,1.3c0,0.7,0.6,1.3,1.3,1.3h44.6C175.4,198.8,176,198.4,176.1,197.7z"/>
	<path d="M131,201.5c-0.4,0-0.8,0.2-1,0.5c-0.3,0.3-0.4,0.7-0.3,1.1l0.8,5.3c0.1,0.7,0.7,1.2,1.3,1.1h41.5c0.7,0,1.2-0.5,1.3-1.1
		l0.8-5.3c0.1-0.4-0.1-0.8-0.3-1.1c-0.3-0.3-0.6-0.5-1-0.5H131z M172.1,206.8h-39.2l-0.4-2.7h40L172.1,206.8z"/>
	<path d="M177.6,187l0.8-5.3c0.1-0.4-0.1-0.8-0.3-1.1c-0.3-0.3-0.6-0.5-1-0.5h-16.6c-0.7,0-1.3,0.6-1.3,1.3c0,0.7,0.6,1.3,1.3,1.3
		h15l-0.4,2.7h-25.3c-0.7,0-1.3,0.6-1.3,1.3s0.6,1.3,1.3,1.3h26.5C177,188.2,177.5,187.7,177.6,187z"/>
	<path d="M188.5,169.5h-28c-0.7,0-1.3,0.6-1.3,1.3s0.6,1.3,1.3,1.3h28c0.7,0,1.3,0.6,1.3,1.3c0,0.7-0.6,1.3-1.3,1.3h-28
		c-0.7,0-1.3,0.6-1.3,1.3c0,0.7,0.6,1.3,1.3,1.3H183l-4.5,31.2c-0.3,2-2,3.5-4,3.4h-44c-2,0-3.7-1.5-4-3.4l-4.6-32.7
		c0,0,0-0.1,0-0.2c0-0.1-0.1-0.2-0.1-0.3c0-0.1-0.1-0.1-0.1-0.2c0-0.1-0.1-0.1-0.2-0.2l-0.2-0.1l-0.2-0.1c-0.1,0-0.2,0-0.3,0
		c-0.1,0-0.2-0.1-0.2-0.1h-4c-0.7,0-1.3-0.6-1.3-1.3c0-0.7,0.6-1.3,1.3-1.3h8v20c0,0.7,0.6,1.3,1.3,1.3h18.7c0.7,0,1.3-0.6,1.3-1.3
		v-21.3c0-0.7-0.6-1.3-1.3-1.3h-28c-2.2,0-4,1.8-4,4c0,2.2,1.8,4,4,4h2.8l4.5,31.6c0.5,3.3,3.3,5.8,6.7,5.7h44
		c3.3,0,6.1-2.4,6.6-5.7l4.5-31.6h2.8c2.2,0,4-1.8,4-4C192.5,171.3,190.7,169.5,188.5,169.5z M127.2,172.2h2c1.1,0,2,0.9,2,2
		c0,1.1-0.9,2-2,2c-0.7,0-1.3,0.6-1.3,1.3c0,0.7,0.6,1.3,1.3,1.3c2.6,0,4.7-2.1,4.7-4.7c0-0.7-0.2-1.4-0.5-2h3.3
		c-0.1,0.4-0.1,0.9-0.1,1.3c0,3.9,2.8,7.2,6.7,7.9v3.2c-3,0.9-5.4,3.2-6.3,6.3h-9.7V172.2z M139.7,190.8c0.7-1.5,1.9-2.7,3.4-3.4
		v3.4H139.7z M143.2,178.7c-2.3-0.6-4-2.7-4-5.1c0-0.5,0.1-0.9,0.2-1.3h3.8V178.7z"/>
	<path d="M180.1,155.8c0.1,0,0.2,0,0.3,0l5.5-1.5c0.7-0.2,1.1-0.9,0.9-1.6c-0.2-0.7-0.9-1.1-1.6-1l-5.5,1.5
		c-0.7,0.1-1.3,0.8-1.2,1.5C178.7,155.5,179.3,156,180.1,155.8L180.1,155.8z"/>
	<path d="M175.5,160.6c0.2,0.6,0.7,1,1.3,1c0.1,0,0.2,0,0.3,0l5.5-1.5c0.7-0.2,1.1-1,0.9-1.7c-0.2-0.7-1-1.1-1.7-0.9l-5.5,1.5
		C175.7,159.2,175.3,159.9,175.5,160.6z"/>
	<path d="M137.8,184.2c0-2.2-1.8-4-4-4s-4,1.8-4,4c0,2.2,1.8,4,4,4S137.8,186.4,137.8,184.2z M133.8,185.5c-0.7,0-1.3-0.6-1.3-1.3
		c0-0.7,0.6-1.3,1.3-1.3c0.7,0,1.3,0.6,1.3,1.3C135.2,184.9,134.6,185.5,133.8,185.5z"/>
</g>
</svg>
