<?xml version="1.0" encoding="utf-8"?>
<!-- Generator: Adobe Illustrator 24.3.0, SVG Export Plug-In . SVG Version: 6.00 Build 0)  -->
<svg version="1.1" id="Layer_1" xmlns="http://www.w3.org/2000/svg" xmlns:xlink="http://www.w3.org/1999/xlink" x="0px" y="0px"
	 viewBox="0 0 944.4 532.1" style="enable-background:new 0 0 944.4 532.1;" xml:space="preserve">
<style type="text/css">
	.st0{fill:url(#SVGID_1_);}
	.st1{fill:#002F87;}
	.st2{fill:#FFFFFF;}
	.st3{fill:#FFCD00;}
</style>
<g>
	
		<image style="overflow:visible;" width="768" height="126" xlink:href="A0C24C6A683EFF65.png"  transform="matrix(1 0 0 1 86.7273 390.3358)">
	</image>
</g>
<g>
	<linearGradient id="SVGID_1_" gradientUnits="userSpaceOnUse" x1="22.3557" y1="186.9998" x2="918.9519" y2="186.9998">
		<stop  offset="0" style="stop-color:#FFCD00"/>
		<stop  offset="0.2697" style="stop-color:#FFB71B"/>
		<stop  offset="0.5112" style="stop-color:#FFD100"/>
		<stop  offset="0.7303" style="stop-color:#FFB71B"/>
		<stop  offset="1" style="stop-color:#FFCD00"/>
	</linearGradient>
	<rect x="22.4" y="12.9" class="st0" width="896.6" height="348.2"/>
	<rect x="32.1" y="12.9" class="st1" width="877.1" height="315.2"/>
	<g>
		<path class="st2" d="M200.9,223c-7,3.9-15.1,6.1-23.7,6.1c-27,0-48.8-21.8-48.8-48.8c0-27,21.8-48.8,48.8-48.8
			c14.9,0,28.3,6.7,37.3,17.3l25.6-44.7c-17.1-14.1-39-22.6-62.9-22.6c-54.6,0-98.8,44.3-98.8,98.8c0,52.8,41.5,96,93.7,98.7
			l28.7-49.2v75.9l54.1-11.5V175.1l-54,11.5V223z"/>
		<path class="st2" d="M373.3,81.5c-54.6,0-98.8,44.3-98.8,98.8c0,54.6,44.2,98.8,98.8,98.8c54.6,0,98.8-44.2,98.8-98.8
			C472.2,125.7,427.9,81.5,373.3,81.5z M373.3,229.1c-27,0-48.8-21.8-48.8-48.8c0-27,21.9-48.8,48.8-48.8c27,0,48.8,21.8,48.8,48.8
			C422.1,207.2,400.3,229.1,373.3,229.1z"/>
		<path class="st2" d="M605.6,86v64.7c0,17.4-14.1,31.5-31.5,31.5c-17.4,0-31.5-14.1-31.5-31.5L542.4,86h-50.3v64.7
			c0,36.6,24,67.6,57.2,78.1V274h50.1l0-45.4c32.9-10.7,56.6-41.6,56.6-78L655.7,86H605.6z"/>
		<path class="st2" d="M768.8,83.4c-49.1,0-88.9,39.8-88.9,88.9V274h50v-32.8h77.6V274h50l0-101.8
			C857.6,123.2,817.8,83.4,768.8,83.4z M807.6,190.6h-77.7l0-18.4c0-21.4,17.4-38.8,38.8-38.8c21.5,0,38.8,17.4,38.8,38.8V190.6z"/>
		<g>
			<path class="st2" d="M880.4,245.7c-8.1,0-14.7,6.6-14.7,14.7c0,8.1,6.6,14.7,14.7,14.7c8.1,0,14.7-6.6,14.7-14.7
				C895.1,252.3,888.6,245.7,880.4,245.7z M880.4,273.9c-7.5,0-13.3-6-13.3-13.4c0-7.6,5.7-13.4,13.3-13.4c7.6,0,13.2,5.9,13.2,13.4
				C893.6,267.8,888,273.9,880.4,273.9z"/>
			<path class="st2" d="M887.3,256.5c0-3.1-1.7-4.8-5.7-4.8h-6.5v17.4h1.5v-8h4.5l5.2,8h1.7l-5.2-8
				C885.2,260.8,887.3,259.4,887.3,256.5z M880.3,259.8h-3.7V253h4.8c2.1,0,4.4,0.8,4.4,3.5C885.8,259.5,882.9,259.8,880.3,259.8z"
				/>
		</g>
	</g>
</g>
<g>
	<g>
		<rect x="240.1" y="467.5" class="st3" width="169.7" height="6.5"/>
		<g>
			<path class="st1" d="M273.8,447.9c-1.3,0.7-2.8,1.2-4.5,1.2c-5.1,0-9.2-4.1-9.2-9.2c0-5.1,4.1-9.2,9.2-9.2c2.8,0,5.4,1.3,7.1,3.3
				l4.8-8.5c-3.2-2.7-7.4-4.3-11.9-4.3c-10.3,0-18.7,8.4-18.7,18.7c0,10,7.9,18.2,17.7,18.7l5.4-9.3v14.4l10.2-2.2v-22.5l-10.2,2.2
				V447.9z"/>
			<path class="st1" d="M306.5,421.1c-10.3,0-18.7,8.4-18.7,18.7c0,10.3,8.4,18.7,18.7,18.7c10.3,0,18.7-8.4,18.7-18.7
				C325.2,429.5,316.8,421.1,306.5,421.1z M306.5,449c-5.1,0-9.2-4.1-9.2-9.2c0-5.1,4.1-9.2,9.2-9.2c5.1,0,9.2,4.1,9.2,9.2
				C315.7,444.9,311.6,449,306.5,449z"/>
			<path class="st1" d="M350.5,421.9v12.2c0,3.3-2.7,6-6,6c-3.3,0-6-2.7-6-6l0-12.2H329v12.2c0,6.9,4.5,12.8,10.8,14.8v8.6h9.5V449
				c6.2-2,10.7-7.9,10.7-14.8l-0.1-12.2H350.5z"/>
			<path class="st1" d="M381.4,421.5c-9.3,0-16.8,7.5-16.8,16.8v19.3h9.5v-6.2h14.7v6.2h9.5l0-19.3
				C398.2,429,390.7,421.5,381.4,421.5z M388.7,441.8H374l0-3.5c0-4.1,3.3-7.4,7.4-7.4c4.1,0,7.4,3.3,7.4,7.4V441.8z"/>
			<g>
				<path class="st1" d="M402.5,452.2c-1.5,0-2.8,1.2-2.8,2.8c0,1.5,1.2,2.8,2.8,2.8c1.5,0,2.8-1.2,2.8-2.8
					C405.3,453.4,404.1,452.2,402.5,452.2z M402.5,457.5c-1.4,0-2.5-1.1-2.5-2.5c0-1.4,1.1-2.5,2.5-2.5c1.4,0,2.5,1.1,2.5,2.5
					C405,456.4,403.9,457.5,402.5,457.5z"/>
				<path class="st1" d="M403.8,454.2c0-0.6-0.3-0.9-1.1-0.9h-1.2v3.3h0.3v-1.5h0.9l1,1.5h0.3l-1-1.5
					C403.4,455,403.8,454.8,403.8,454.2z M402.5,454.9h-0.7v-1.3h0.9c0.4,0,0.8,0.1,0.8,0.7C403.5,454.8,403,454.9,402.5,454.9z"/>
			</g>
		</g>
	</g>
	<g>
		<g>
			<path class="st1" d="M131.4,426.3h6.7l-7.7,36.3h-6.7L131.4,426.3z"/>
			<path class="st1" d="M149,441.9l-3.8,22.4c-0.2,1.3-0.5,2.5-0.9,3.6c-0.4,1.1-0.9,2-1.6,2.9c-0.7,0.8-1.5,1.5-2.6,1.9
				c-1,0.5-2.3,0.7-3.8,0.7c-1.2,0-2.5-0.1-3.7-0.3c-1.2-0.2-2.2-0.6-3.1-1.2l1.8-4.7c0.6,0.2,1.2,0.3,1.8,0.4
				c0.6,0.1,1.3,0.1,2.2,0.1c1.1,0,2-0.4,2.6-1.3c0.6-0.9,1.1-2.3,1.4-4.3l3.3-20.1h-3.6l1.1-5.3h3.3l0.7-3.5
				c0.2-1.3,0.5-2.4,0.9-3.3c0.4-0.9,0.9-1.7,1.5-2.4c0.6-0.6,1.4-1.1,2.3-1.4c0.9-0.3,2-0.5,3.4-0.5c0.6,0,1.2,0,1.9,0.1
				c0.7,0.1,1.4,0.1,2.1,0.3c0.7,0.1,1.4,0.3,2,0.4c0.7,0.2,1.2,0.4,1.8,0.6l-1.5,4.7c-0.8-0.3-1.6-0.6-2.4-0.7
				c-0.8-0.1-1.6-0.2-2.4-0.2c-1.1,0-1.9,0.3-2.4,1c-0.5,0.7-0.9,1.7-1.1,3.1l-0.3,1.7h5.2l-1,5.3H149z"/>
			<path class="st1" d="M170.9,436.6h6.4l-5.5,25.9h-6.4L170.9,436.6z M172,429.3c0-1.1,0.4-2,1.1-2.6c0.7-0.6,1.7-0.9,2.8-0.9
				c1.1,0,2,0.3,2.8,0.9c0.8,0.6,1.2,1.5,1.2,2.6c0,1.1-0.4,2-1.2,2.6c-0.8,0.6-1.7,1-2.8,1c-1.1,0-2.1-0.3-2.8-1
				C172.3,431.2,172,430.4,172,429.3z"/>
			<path class="st1" d="M180.6,436.6h3.4l1-4.9l6.8-1.9l-1.4,6.8h6.1l-1.2,5.3h-6l-2.5,11.8c-0.2,0.9-0.3,1.7-0.3,2.3
				c0,0.8,0.2,1.3,0.5,1.6c0.3,0.3,0.9,0.4,1.6,0.4c0.7,0,1.3-0.1,1.8-0.2c0.5-0.1,1.1-0.4,1.7-0.7v4.8c-0.4,0.2-0.8,0.4-1.4,0.6
				c-0.5,0.2-1.1,0.3-1.7,0.5c-0.6,0.1-1.3,0.2-1.9,0.3c-0.7,0.1-1.3,0.1-1.8,0.1c-1.8,0-3.1-0.4-4.1-1.2c-1-0.8-1.4-2-1.4-3.7
				c0-0.3,0-0.7,0.1-1.1c0.1-0.4,0.1-0.8,0.2-1.2l3-14.1h-3.5L180.6,436.6z"/>
			<path class="st1" d="M201,426.3h5.6l-4.1,11.2h-3.9L201,426.3z"/>
			<path class="st1" d="M207.1,456.4c0.7,0.4,1.6,0.7,2.7,1c1.1,0.3,2.2,0.5,3.4,0.5c1.2,0,2.1-0.2,2.8-0.7c0.6-0.5,1-1.2,1-2.2
				c0-0.7-0.2-1.3-0.6-1.8c-0.4-0.5-0.9-1-1.6-1.4c-0.6-0.5-1.3-0.9-2-1.4c-0.7-0.5-1.4-1-2-1.6c-0.6-0.6-1.2-1.3-1.6-2.2
				c-0.4-0.8-0.6-1.8-0.6-3c0-1.1,0.2-2.2,0.7-3.2c0.5-1,1.1-1.8,1.9-2.5c0.8-0.7,1.8-1.2,3-1.6c1.2-0.4,2.5-0.6,3.9-0.6
				c2,0,3.7,0.1,5,0.4c1.3,0.3,2.3,0.7,3.1,1.1l-1.8,4.9c-0.7-0.3-1.5-0.6-2.5-0.8c-1-0.2-2-0.3-3.1-0.3c-1.1,0-2,0.2-2.6,0.6
				c-0.6,0.4-1,1-1,1.8c0,0.6,0.2,1.1,0.6,1.5c0.4,0.4,0.9,0.9,1.6,1.3c0.6,0.5,1.3,0.9,2,1.4c0.7,0.5,1.4,1,2,1.7
				c0.6,0.7,1.2,1.4,1.6,2.3c0.4,0.8,0.6,1.9,0.6,3c0,2.9-0.9,5-2.8,6.4c-1.9,1.4-4.4,2.1-7.5,2.1c-1.8,0-3.4-0.2-4.8-0.5
				c-1.5-0.3-2.6-0.7-3.4-1.2L207.1,456.4z"/>
			<path class="st1" d="M454.5,436.6h6.4l-5.5,25.9H449L454.5,436.6z M455.5,429.3c0-1.1,0.4-2,1.1-2.6c0.7-0.6,1.7-0.9,2.8-0.9
				c1.1,0,2,0.3,2.8,0.9c0.8,0.6,1.2,1.5,1.2,2.6c0,1.1-0.4,2-1.2,2.6c-0.8,0.6-1.7,1-2.8,1c-1.1,0-2.1-0.3-2.8-1
				C455.9,431.2,455.5,430.4,455.5,429.3z"/>
			<path class="st1" d="M464.2,436.6h3.4l1-4.9l6.8-1.9l-1.5,6.8h6.1l-1.2,5.3h-6l-2.5,11.8c-0.2,0.9-0.3,1.7-0.3,2.3
				c0,0.8,0.2,1.3,0.5,1.6c0.3,0.3,0.9,0.4,1.5,0.4c0.7,0,1.3-0.1,1.8-0.2c0.5-0.1,1.1-0.4,1.7-0.7v4.8c-0.4,0.2-0.8,0.4-1.4,0.6
				c-0.5,0.2-1.1,0.3-1.7,0.5c-0.6,0.1-1.3,0.2-1.9,0.3c-0.7,0.1-1.3,0.1-1.8,0.1c-1.8,0-3.1-0.4-4.1-1.2c-1-0.8-1.4-2-1.4-3.7
				c0-0.3,0-0.7,0.1-1.1c0.1-0.4,0.1-0.8,0.2-1.2l3-14.1h-3.5L464.2,436.6z"/>
			<path class="st1" d="M506.5,462.5l3.1-14.6c0.3-1.5,0.5-2.8,0.5-3.8c0-0.9-0.2-1.5-0.5-1.9c-0.3-0.4-0.9-0.6-1.6-0.6
				c-0.7,0-1.3,0.2-2.1,0.6c-0.7,0.4-1.4,0.9-2.1,1.5c-0.7,0.6-1.3,1.3-1.8,2c-0.5,0.7-0.9,1.3-1.2,1.9l-3.1,14.8h-6.4l7.7-36.3h6.4
				l-3.3,14.9h0.2c0.5-0.5,1-1.1,1.6-1.8c0.6-0.6,1.3-1.2,2.1-1.7c0.8-0.5,1.6-1,2.5-1.3c0.9-0.3,1.9-0.5,3-0.5
				c1.7,0,2.9,0.4,3.9,1.2c0.9,0.8,1.4,2.3,1.4,4.4c0,1.3-0.2,2.9-0.6,4.9l-3.4,16.1H506.5z"/>
			<path class="st1" d="M540.9,452.1c-0.3,1.3-0.5,2.6-0.6,4c-0.1,1.3-0.2,2.6-0.2,3.8c0,0.5,0,0.9,0,1.4c0,0.4,0,0.8,0.1,1.2h-4.7
				l-0.7-4.5h-0.2c-0.4,0.6-0.9,1.2-1.5,1.8c-0.6,0.6-1.3,1.2-2,1.7c-0.7,0.5-1.5,0.9-2.3,1.2c-0.8,0.3-1.7,0.4-2.5,0.4
				c-2.3,0-4-0.7-5-2.2c-1.1-1.5-1.6-3.5-1.6-6c0-2.5,0.3-4.9,1-7.2c0.6-2.3,1.6-4.4,3-6.1c1.3-1.8,3-3.2,5.1-4.2
				c2.1-1,4.5-1.6,7.3-1.6c1.2,0,2.5,0.1,4,0.3c1.4,0.2,2.8,0.5,4.2,0.9L540.9,452.1z M528.7,457.9c0.6,0,1.2-0.1,1.8-0.4
				c0.6-0.3,1.1-0.6,1.5-1c0.5-0.4,0.9-0.9,1.2-1.4c0.4-0.5,0.7-0.9,1-1.4l2.6-12.1c-0.4-0.2-0.8-0.3-1.3-0.4
				c-0.5-0.1-1-0.1-1.5-0.1c-1.2,0-2.4,0.4-3.3,1.1c-1,0.7-1.8,1.7-2.5,2.9c-0.7,1.2-1.2,2.6-1.5,4.1c-0.3,1.5-0.5,3-0.5,4.6
				c0,1.1,0.2,2.1,0.5,2.9C527.1,457.5,527.7,457.9,528.7,457.9z"/>
			<path class="st1" d="M545.9,456.4c0.7,0.4,1.6,0.7,2.7,1c1.1,0.3,2.2,0.5,3.4,0.5c1.2,0,2.1-0.2,2.8-0.7c0.6-0.5,1-1.2,1-2.2
				c0-0.7-0.2-1.3-0.6-1.8c-0.4-0.5-0.9-1-1.6-1.4c-0.6-0.5-1.3-0.9-2-1.4c-0.7-0.5-1.4-1-2-1.6c-0.6-0.6-1.2-1.3-1.6-2.2
				c-0.4-0.8-0.6-1.8-0.6-3c0-1.1,0.2-2.2,0.7-3.2c0.4-1,1.1-1.8,1.9-2.5c0.8-0.7,1.8-1.2,3-1.6c1.2-0.4,2.5-0.6,3.9-0.6
				c2,0,3.7,0.1,5,0.4c1.3,0.3,2.3,0.7,3.1,1.1l-1.8,4.9c-0.7-0.3-1.5-0.6-2.5-0.8c-1-0.2-2-0.3-3.1-0.3c-1.1,0-2,0.2-2.6,0.6
				c-0.6,0.4-1,1-1,1.8c0,0.6,0.2,1.1,0.6,1.5c0.4,0.4,0.9,0.9,1.6,1.3c0.6,0.5,1.3,0.9,2,1.4c0.7,0.5,1.4,1,2,1.7
				c0.6,0.7,1.2,1.4,1.6,2.3c0.4,0.8,0.6,1.9,0.6,3c0,2.9-0.9,5-2.8,6.4c-1.9,1.4-4.3,2.1-7.5,2.1c-1.8,0-3.4-0.2-4.8-0.5
				c-1.5-0.3-2.6-0.7-3.4-1.2L545.9,456.4z"/>
			<path class="st1" d="M580.8,436.6h3.4l1-4.9l6.8-1.9l-1.5,6.8h6.1l-1.2,5.3h-6l-2.5,11.8c-0.2,0.9-0.3,1.7-0.3,2.3
				c0,0.8,0.2,1.3,0.5,1.6c0.3,0.3,0.9,0.4,1.5,0.4c0.7,0,1.2-0.1,1.8-0.2c0.5-0.1,1.1-0.4,1.7-0.7v4.8c-0.4,0.2-0.8,0.4-1.4,0.6
				c-0.5,0.2-1.1,0.3-1.7,0.5c-0.6,0.1-1.3,0.2-1.9,0.3c-0.7,0.1-1.3,0.1-1.8,0.1c-1.8,0-3.1-0.4-4.1-1.2c-0.9-0.8-1.4-2-1.4-3.7
				c0-0.3,0-0.7,0.1-1.1c0.1-0.4,0.1-0.8,0.2-1.2l3-14.1h-3.5L580.8,436.6z"/>
			<path class="st1" d="M595.9,454.1c0-2.7,0.4-5.2,1.2-7.5c0.8-2.2,1.8-4.2,3.1-5.7c1.3-1.6,2.8-2.8,4.5-3.7
				c1.7-0.9,3.5-1.3,5.4-1.3c1.7,0,3.1,0.3,4.2,0.8c1.1,0.5,2.1,1.2,2.8,2.1c0.7,0.9,1.2,1.8,1.5,3c0.3,1.1,0.5,2.2,0.5,3.4
				c0,2.7-0.4,5.2-1.1,7.4c-0.8,2.2-1.8,4.1-3.1,5.7c-1.3,1.6-2.8,2.8-4.5,3.7c-1.7,0.9-3.5,1.3-5.3,1.3c-1.6,0-3-0.3-4.1-0.8
				c-1.1-0.5-2.1-1.2-2.8-2.1c-0.7-0.9-1.3-1.8-1.6-2.9C596,456.3,595.9,455.2,595.9,454.1z M602.4,453.3c0,3.1,1.1,4.7,3.4,4.7
				c0.8,0,1.6-0.4,2.4-1.1c0.8-0.7,1.5-1.7,2.1-2.9c0.6-1.2,1.1-2.5,1.5-4c0.4-1.5,0.5-3,0.5-4.5c0-1.4-0.2-2.5-0.7-3.2
				c-0.5-0.7-1.3-1.1-2.6-1.1c-0.8,0-1.6,0.3-2.4,1c-0.8,0.7-1.5,1.6-2.1,2.7c-0.6,1.1-1.1,2.4-1.5,3.9
				C602.6,450.3,602.4,451.8,602.4,453.3z"/>
			<path class="st1" d="M641.4,426.3h6.4l-3.2,14.9h0.2c0.5-0.6,1-1.2,1.6-1.8c0.6-0.6,1.2-1.2,1.9-1.7c0.7-0.5,1.5-0.9,2.3-1.2
				c0.8-0.3,1.7-0.5,2.7-0.5c1.9,0,3.3,0.7,4.2,2c0.9,1.3,1.4,3.1,1.4,5.2c0,3.3-0.5,6.2-1.4,8.6c-0.9,2.5-2.1,4.6-3.6,6.2
				c-1.5,1.7-3.2,2.9-5,3.8c-1.9,0.8-3.7,1.3-5.6,1.3c-2.1,0-4-0.2-5.6-0.6c-1.6-0.4-2.8-0.9-3.7-1.5L641.4,426.3z M641.2,457.1
				c0.4,0.3,0.8,0.5,1.4,0.6c0.6,0.1,1.2,0.2,1.8,0.2c0.9,0,1.8-0.3,2.7-0.9c0.9-0.6,1.8-1.4,2.6-2.5c0.8-1.1,1.4-2.5,1.9-4.1
				c0.5-1.6,0.8-3.4,0.8-5.5c0-2.4-0.7-3.6-2.1-3.6c-0.7,0-1.4,0.2-2,0.6c-0.7,0.4-1.3,0.9-1.9,1.4c-0.6,0.6-1.2,1.2-1.7,1.8
				c-0.5,0.7-0.9,1.3-1.2,1.9L641.2,457.1z"/>
			<path class="st1" d="M680.2,460c-1.1,0.9-2.4,1.7-4.1,2.3c-1.7,0.6-3.7,0.9-5.9,0.9c-2.8,0-5-0.8-6.6-2.5
				c-1.6-1.6-2.4-3.9-2.4-6.9c0-2.8,0.4-5.3,1.3-7.5c0.9-2.2,2-4.1,3.4-5.7c1.4-1.6,3-2.8,4.7-3.6c1.8-0.8,3.5-1.3,5.3-1.3
				c1.4,0,2.6,0.2,3.6,0.5c1,0.4,1.9,0.9,2.5,1.5c0.7,0.6,1.1,1.4,1.4,2.2c0.3,0.8,0.5,1.7,0.5,2.6c0,1.4-0.4,2.7-1.1,3.7
				c-0.7,1.1-1.7,2-3,2.7c-1.3,0.7-2.9,1.2-4.7,1.6c-1.8,0.4-3.8,0.5-6,0.5c-0.3,0-0.5,0-0.8,0c-0.2,0-0.5,0-0.8,0
				c-0.1,0.4-0.1,0.8-0.2,1.1c0,0.3-0.1,0.6-0.1,0.9c0,1.6,0.4,2.7,1.2,3.5c0.8,0.8,2,1.1,3.4,1.1c1.5,0,2.9-0.2,4.1-0.7
				c1.2-0.5,2.1-0.9,2.7-1.4L680.2,460z M668.5,447.2c1,0,2,0,3.1-0.1c1.1-0.1,2.1-0.2,3-0.5c0.9-0.3,1.7-0.6,2.3-1.1
				c0.6-0.5,0.9-1.2,0.9-2c0-0.5-0.2-1-0.6-1.6c-0.4-0.5-1.2-0.8-2.4-0.8c-1.5,0-2.8,0.6-4,1.7C669.8,444.1,669,445.5,668.5,447.2z"
				/>
			<path class="st1" d="M717.7,462.5c-0.4,2-1.1,3.8-1.8,5.2c-0.8,1.4-1.7,2.5-2.7,3.4c-1.1,0.9-2.3,1.5-3.6,1.9
				c-1.4,0.4-2.9,0.6-4.5,0.6c-1.2,0-2.3-0.1-3.2-0.3c-1-0.2-1.8-0.4-2.5-0.6c-0.7-0.2-1.4-0.5-1.9-0.7c-0.5-0.3-1-0.5-1.3-0.7
				l2.4-4.7c0.3,0.1,0.7,0.3,1.1,0.5c0.4,0.2,0.9,0.4,1.4,0.6c0.5,0.2,1.2,0.4,1.9,0.5c0.7,0.1,1.5,0.2,2.5,0.2
				c1.7,0,3.1-0.5,4.1-1.6c1-1.1,1.8-2.6,2.2-4.4l1-4.1h-0.2c-0.8,1.2-1.9,2.4-3.2,3.3c-1.4,1-2.9,1.5-4.6,1.5
				c-1.9,0-3.4-0.7-4.5-2.1c-1.2-1.4-1.7-3.3-1.7-5.6c0-2.7,0.4-5.2,1.1-7.5c0.8-2.3,1.8-4.4,3.2-6.1c1.4-1.7,3-3.1,4.8-4.1
				c1.9-1,3.9-1.5,6.2-1.5c2.1,0,4,0.2,5.5,0.5c1.6,0.4,2.8,0.8,3.8,1.2L717.7,462.5z M715.8,441.8c-0.4-0.2-0.9-0.3-1.5-0.4
				c-0.6-0.1-1.2-0.1-1.8-0.1c-1.1,0-2.1,0.3-3.1,1c-1,0.7-1.8,1.6-2.5,2.7c-0.7,1.1-1.2,2.5-1.6,4c-0.4,1.5-0.6,3.2-0.6,5
				c0,1.1,0.2,2,0.7,2.7c0.5,0.7,1.1,1,1.8,1c0.6,0,1.2-0.2,1.8-0.5c0.6-0.4,1.2-0.8,1.8-1.4c0.6-0.6,1.1-1.2,1.5-1.9
				c0.5-0.7,0.8-1.3,1.1-1.9L715.8,441.8z"/>
			<path class="st1" d="M724.5,454.1c0-2.7,0.4-5.2,1.2-7.5c0.8-2.2,1.8-4.2,3.1-5.7c1.3-1.6,2.8-2.8,4.5-3.7
				c1.7-0.9,3.5-1.3,5.4-1.3c1.7,0,3.1,0.3,4.2,0.8c1.1,0.5,2.1,1.2,2.8,2.1c0.7,0.9,1.2,1.8,1.5,3c0.3,1.1,0.5,2.2,0.5,3.4
				c0,2.7-0.4,5.2-1.1,7.4c-0.8,2.2-1.8,4.1-3.1,5.7c-1.3,1.6-2.8,2.8-4.5,3.7c-1.7,0.9-3.5,1.3-5.3,1.3c-1.6,0-3-0.3-4.1-0.8
				c-1.1-0.5-2.1-1.2-2.8-2.1c-0.7-0.9-1.3-1.8-1.6-2.9C724.7,456.3,724.5,455.2,724.5,454.1z M731.1,453.3c0,3.1,1.1,4.7,3.4,4.7
				c0.8,0,1.6-0.4,2.4-1.1c0.8-0.7,1.5-1.7,2.1-2.9c0.6-1.2,1.1-2.5,1.5-4c0.4-1.5,0.5-3,0.5-4.5c0-1.4-0.2-2.5-0.7-3.2
				c-0.5-0.7-1.3-1.1-2.6-1.1c-0.8,0-1.6,0.3-2.4,1c-0.8,0.7-1.5,1.6-2.1,2.7c-0.6,1.1-1.1,2.4-1.5,3.9
				C731.3,450.3,731.1,451.8,731.1,453.3z"/>
			<path class="st1" d="M750.2,454.1c0-2.7,0.4-5.2,1.2-7.5c0.8-2.2,1.8-4.2,3.1-5.7c1.3-1.6,2.8-2.8,4.5-3.7
				c1.7-0.9,3.5-1.3,5.4-1.3c1.7,0,3.1,0.3,4.2,0.8c1.1,0.5,2.1,1.2,2.8,2.1c0.7,0.9,1.2,1.8,1.5,3c0.3,1.1,0.5,2.2,0.5,3.4
				c0,2.7-0.4,5.2-1.1,7.4c-0.8,2.2-1.8,4.1-3.1,5.7c-1.3,1.6-2.8,2.8-4.5,3.7c-1.7,0.9-3.5,1.3-5.3,1.3c-1.6,0-3-0.3-4.1-0.8
				c-1.1-0.5-2.1-1.2-2.8-2.1c-0.7-0.9-1.3-1.8-1.6-2.9C750.4,456.3,750.2,455.2,750.2,454.1z M756.8,453.3c0,3.1,1.1,4.7,3.4,4.7
				c0.8,0,1.6-0.4,2.4-1.1c0.8-0.7,1.5-1.7,2.1-2.9c0.6-1.2,1.1-2.5,1.5-4c0.4-1.5,0.5-3,0.5-4.5c0-1.4-0.2-2.5-0.7-3.2
				c-0.5-0.7-1.3-1.1-2.6-1.1c-0.8,0-1.6,0.3-2.4,1c-0.8,0.7-1.5,1.6-2.1,2.7c-0.6,1.1-1.1,2.4-1.5,3.9
				C757,450.3,756.8,451.8,756.8,453.3z"/>
			<path class="st1" d="M797,453.4c-0.3,1.5-0.5,2.8-0.7,4c-0.1,1.2-0.2,2.4-0.2,3.5c0,0.3,0,0.5,0,0.8c0,0.3,0,0.5,0.1,0.8h-4.4
				l-0.7-4.5h-0.2c-0.4,0.6-0.9,1.2-1.5,1.8c-0.6,0.6-1.3,1.2-2,1.7c-0.7,0.5-1.5,0.9-2.3,1.2c-0.8,0.3-1.6,0.4-2.4,0.4
				c-2.1,0-3.8-0.8-4.9-2.3c-1.2-1.5-1.7-3.6-1.7-6.3c0-2.4,0.3-4.7,1-7c0.7-2.2,1.6-4.2,2.8-6c1.2-1.7,2.6-3.1,4.4-4.2
				c1.7-1,3.6-1.6,5.7-1.6c1,0,1.8,0.1,2.5,0.2c0.7,0.1,1.3,0.3,1.9,0.6l2.2-10.5h6.4L797,453.4z M793.1,442.1
				c-0.4-0.3-0.9-0.5-1.4-0.6c-0.5-0.1-1.3-0.2-2.2-0.2c-1,0-2,0.4-2.8,1.1c-0.8,0.7-1.6,1.7-2.1,2.9c-0.6,1.2-1,2.6-1.4,4.1
				c-0.3,1.6-0.5,3.2-0.5,4.9c0,1,0.2,1.9,0.7,2.6c0.5,0.7,1.1,1.1,1.9,1.1c0.5,0,1-0.1,1.6-0.4c0.5-0.3,1-0.6,1.5-1
				c0.5-0.4,0.9-0.9,1.3-1.4c0.4-0.5,0.7-0.9,1-1.4L793.1,442.1z"/>
			<path class="st1" d="M804.2,459.1c0-1.2,0.4-2.2,1.1-2.9c0.8-0.7,1.8-1.1,3-1.1c1.3,0,2.3,0.4,3.1,1.1c0.8,0.7,1.1,1.7,1.1,2.9
				c0,1.2-0.4,2.2-1.1,2.9c-0.8,0.7-1.8,1.1-3.1,1.1c-1.2,0-2.2-0.4-3-1.1C804.6,461.3,804.2,460.3,804.2,459.1z M811.7,426.3h6.6
				l-3.6,17l-3.1,8.4h-4l0.5-8.4L811.7,426.3z"/>
		</g>
	</g>
</g>
</svg>
