<?xml version="1.0" encoding="utf-8"?>
<!-- Generator: Adobe Illustrator 25.1.0, SVG Export Plug-In . SVG Version: 6.00 Build 0)  -->
<svg version="1.1" id="Layer_1" xmlns="http://www.w3.org/2000/svg" xmlns:xlink="http://www.w3.org/1999/xlink" x="0px" y="0px"
	 viewBox="0 0 305 230.8" style="enable-background:new 0 0 305 230.8;" xml:space="preserve">
<style type="text/css">
	.st0{fill:#FFFFFF;}
	.st1{fill:#F4D44E;}
	.st2{fill:#666666;}
	.st3{font-family:'Lato-Light';}
	.st4{font-size:7.8461px;}
	.st5{font-family:'Lato-Bold';}
	.st6{fill:none;stroke:#D9D9D9;stroke-width:0.5;stroke-linecap:round;stroke-linejoin:round;stroke-miterlimit:10;}
	.st7{fill:url(#SVGID_1_);}
	.st8{fill:url(#SVGID_2_);}
	.st9{fill:url(#SVGID_3_);}
	.st10{fill:url(#SVGID_4_);}
	.st11{fill:url(#SVGID_5_);}
	.st12{fill:url(#SVGID_6_);}
	.st13{fill:url(#SVGID_7_);}
	.st14{fill:url(#SVGID_8_);}
	.st15{fill:#CCCCCC;}
	.st16{fill:none;stroke:url(#SVGID_9_);stroke-width:2;stroke-linecap:round;stroke-linejoin:round;stroke-miterlimit:10;}
	.st17{fill:url(#SVGID_10_);}
	.st18{fill:url(#SVGID_11_);}
	.st19{fill:url(#SVGID_12_);}
	.st20{fill:url(#SVGID_13_);}
	.st21{fill:url(#SVGID_14_);}
	.st22{fill:url(#SVGID_15_);}
	.st23{fill:url(#SVGID_16_);}
</style>
<g>
	<g>
		<g>
			<path class="st0" d="M59.9,85.8l-9.1,15.7l-0.3,0C32,100.5,17.6,85.3,17.6,66.9c0-19.1,15.5-34.6,34.6-34.6
				c8.2,0,15.8,2.7,22,7.9l0.3,0.3l-9.4,16.4l-0.5-0.6c-3-3.6-7.6-5.8-12.4-5.8c-9,0-16.3,7.3-16.3,16.3s7.3,16.3,16.3,16.3
				c2.6,0,5.1-0.6,7.5-1.9V68.7l19.6-4.2v42l-19.6,4.2V85.8z"/>
			<path class="st1" d="M52.3,32.8c8.3,0,15.8,2.9,21.7,7.8L65.2,56c-3-3.7-7.7-6-12.8-6c-9.3,0-16.8,7.5-16.8,16.8
				s7.5,16.8,16.8,16.8c3,0,5.6-0.8,8-2.1V69.1l18.6-4v41l-18.6,4V83.9l-9.9,17c-18-0.9-32.3-15.8-32.3-34
				C18.2,48.1,33.5,32.8,52.3,32.8 M52.3,31.8c-19.4,0-35.1,15.7-35.1,35.1c0,18.7,14.6,34.1,33.3,35l0.6,0l0.3-0.5l8-13.8v22.5v1.2
				l1.2-0.3l18.6-4l0.8-0.2v-0.8v-41v-1.2l-1.2,0.3l-18.6,4l-0.8,0.2v0.8v11.8c-2.3,1.1-4.6,1.7-7,1.7c-8.7,0-15.8-7.1-15.8-15.8
				c0-8.7,7.1-15.8,15.8-15.8c4.7,0,9.2,2.1,12,5.6l0.9,1.1l0.7-1.3l8.8-15.4l0.4-0.7l-0.6-0.5C68.3,34.6,60.5,31.8,52.3,31.8
				L52.3,31.8z"/>
		</g>
		<g>
			<path class="st0" d="M120,101.5c-19.1,0-34.6-15.5-34.6-34.6s15.5-34.6,34.6-34.6c19.1,0,34.6,15.5,34.6,34.6
				S139,101.5,120,101.5z M120,50.5c-9,0-16.3,7.3-16.3,16.3S111,83.1,120,83.1s16.3-7.3,16.3-16.3S128.9,50.5,120,50.5z"/>
			<path class="st1" d="M120,32.8c18.8,0,34.1,15.2,34.1,34.1S138.8,101,120,101c-18.9,0-34.1-15.3-34.1-34.1S101.2,32.8,120,32.8
				 M120,83.6c9.3,0,16.8-7.5,16.8-16.8c0-9.3-7.5-16.8-16.8-16.8s-16.8,7.5-16.8,16.8S110.7,83.6,120,83.6 M120,31.8
				c-19.4,0-35.1,15.7-35.1,35.1S100.6,102,120,102s35.1-15.7,35.1-35.1S139.3,31.8,120,31.8L120,31.8z M120,82.6
				c-8.7,0-15.8-7.1-15.8-15.8S111.2,51,120,51s15.8,7.1,15.8,15.8C135.8,75.5,128.7,82.6,120,82.6L120,82.6z"/>
		</g>
		<g>
			<path class="st0" d="M180.2,99.6V83.9c-11.8-3.9-19.7-14.8-19.7-27.3V33.8h18.3v22.8c0,5.7,4.7,10.4,10.4,10.4
				s10.4-4.7,10.4-10.4V33.8h18.3l0.1,22.8c0,12.4-7.8,23.3-19.5,27.3v15.7H180.2z"/>
			<path class="st1" d="M217.4,34.3l0.1,22.3c0,12.6-8.2,23.2-19.5,26.9v15.6h-17.3V83.5C169.3,79.9,161,69.2,161,56.6V34.3h17.3
				v22.3c0,6,4.9,10.9,10.9,10.9s10.9-4.9,10.9-10.9V34.3H217.4 M218.3,33.3h-1h-17.3h-1v1v22.3c0,5.5-4.4,9.9-9.9,9.9
				s-9.9-4.4-9.9-9.9V34.3v-1h-1H161h-1v1v22.3c0,12.6,7.9,23.6,19.7,27.6v14.9v1h1H198h1v-1V84.2c11.7-4.1,19.5-15.2,19.5-27.6
				l-0.1-22.3L218.3,33.3L218.3,33.3z"/>
		</g>
		<g>
			<path class="st0" d="M269.2,99.6V88.3h-25.8v11.3h-18.2V64c0-17.1,14-31.1,31.1-31.1s31.1,14,31.1,31.1v35.6H269.2z M269.2,69.9
				v-5.8c0-7.1-5.8-12.9-12.9-12.9s-12.9,5.8-12.9,12.9v5.8H269.2z"/>
			<path class="st1" d="M256.2,33.4c16.9,0,30.6,13.7,30.6,30.6v35.1h-17.2V87.8h-26.8v11.3h-17.2V64
				C225.6,47.1,239.4,33.4,256.2,33.4 M242.9,70.4h26.8v-6.3c0-7.4-6-13.4-13.4-13.4c-7.4,0-13.4,6-13.4,13.4V70.4 M256.2,32.4
				c-17.4,0-31.6,14.2-31.6,31.6v35.1v1h1h17.2h1v-1V88.8h24.8v10.3v1h1h17.2h1v-1V64C287.9,46.6,273.7,32.4,256.2,32.4L256.2,32.4z
				 M243.9,69.4v-5.3c0-6.8,5.6-12.4,12.4-12.4c6.8,0,12.4,5.6,12.4,12.4v5.3H243.9L243.9,69.4z"/>
		</g>
	</g>
	<g>
		<g>
			<g>
				<g>
					<text transform="matrix(1 0 0 1 48.1015 184.1826)" class="st2 st3 st4">10</text>
				</g>
				<g>
					<text transform="matrix(1 0 0 1 48.1015 161.7168)" class="st2 st3 st4">20</text>
				</g>
				<g>
					<text transform="matrix(1 0 0 1 48.1015 139.25)" class="st2 st3 st4">30</text>
				</g>
			</g>
		</g>
		<g>
			<g>
				<text transform="matrix(1 0 0 1 65.0532 196.0366)" class="st2 st5 st4">0</text>
			</g>
			<g>
				<text transform="matrix(1 0 0 1 90.7958 196.0366)" class="st2 st5 st4">1</text>
			</g>
			<g>
				<text transform="matrix(1 0 0 1 117.519 196.0366)" class="st2 st5 st4">2</text>
			</g>
			<g>
				<text transform="matrix(1 0 0 1 144.2426 196.0366)" class="st2 st5 st4">3</text>
			</g>
			<g>
				<text transform="matrix(1 0 0 1 170.9658 196.0366)" class="st2 st5 st4">4</text>
			</g>
			<g>
				<text transform="matrix(1 0 0 1 197.6889 196.0366)" class="st2 st5 st4">5</text>
			</g>
			<g>
				<text transform="matrix(1 0 0 1 224.4125 196.0366)" class="st2 st5 st4">6</text>
			</g>
			<g>
				<text transform="matrix(1 0 0 1 251.1357 196.0366)" class="st2 st5 st4">7</text>
			</g>
		</g>
		<g>
			<line class="st6" x1="67.3" y1="159.7" x2="254.1" y2="159.7"/>
			<line class="st6" x1="67.3" y1="137.1" x2="254.1" y2="137.1"/>
			<g>
				<line class="st6" x1="67.3" y1="182.2" x2="254.1" y2="182.2"/>
				<g>
					<linearGradient id="SVGID_1_" gradientUnits="userSpaceOnUse" x1="63.5916" y1="182.22" x2="258.4821" y2="182.22">
						<stop  offset="0" style="stop-color:#FFB979"/>
						<stop  offset="1" style="stop-color:#FF3E57"/>
					</linearGradient>
					<path class="st7" d="M67.3,182.2c0,0.7-0.5,1.2-1.2,1.2c-0.7,0-1.2-0.5-1.2-1.2c0-0.7,0.5-1.2,1.2-1.2
						C66.8,181,67.3,181.6,67.3,182.2z"/>
					<linearGradient id="SVGID_2_" gradientUnits="userSpaceOnUse" x1="63.5926" y1="182.22" x2="258.4831" y2="182.22">
						<stop  offset="0" style="stop-color:#FFB979"/>
						<stop  offset="1" style="stop-color:#FF3E57"/>
					</linearGradient>
					<path class="st8" d="M94.2,182.2c0,0.7-0.5,1.2-1.2,1.2c-0.7,0-1.2-0.5-1.2-1.2c0-0.7,0.5-1.2,1.2-1.2
						C93.7,181,94.2,181.6,94.2,182.2z"/>
					<linearGradient id="SVGID_3_" gradientUnits="userSpaceOnUse" x1="63.5934" y1="182.22" x2="258.4839" y2="182.22">
						<stop  offset="0" style="stop-color:#FFB979"/>
						<stop  offset="1" style="stop-color:#FF3E57"/>
					</linearGradient>
					<path class="st9" d="M121.1,182.2c0,0.7-0.5,1.2-1.2,1.2c-0.7,0-1.2-0.5-1.2-1.2c0-0.7,0.5-1.2,1.2-1.2
						C120.5,181,121.1,181.6,121.1,182.2z"/>
					<linearGradient id="SVGID_4_" gradientUnits="userSpaceOnUse" x1="63.5945" y1="182.22" x2="258.485" y2="182.22">
						<stop  offset="0" style="stop-color:#FFB979"/>
						<stop  offset="1" style="stop-color:#FF3E57"/>
					</linearGradient>
					<path class="st10" d="M147.9,182.2c0,0.7-0.5,1.2-1.2,1.2c-0.7,0-1.2-0.5-1.2-1.2c0-0.7,0.5-1.2,1.2-1.2
						C147.4,181,147.9,181.6,147.9,182.2z"/>
					<linearGradient id="SVGID_5_" gradientUnits="userSpaceOnUse" x1="63.5953" y1="182.22" x2="258.4858" y2="182.22">
						<stop  offset="0" style="stop-color:#FFB979"/>
						<stop  offset="1" style="stop-color:#FF3E57"/>
					</linearGradient>
					<path class="st11" d="M174.8,182.2c0,0.7-0.5,1.2-1.2,1.2c-0.7,0-1.2-0.5-1.2-1.2c0-0.7,0.5-1.2,1.2-1.2
						C174.2,181,174.8,181.6,174.8,182.2z"/>
					<linearGradient id="SVGID_6_" gradientUnits="userSpaceOnUse" x1="63.5971" y1="182.22" x2="258.4876" y2="182.22">
						<stop  offset="0" style="stop-color:#FFB979"/>
						<stop  offset="1" style="stop-color:#FF3E57"/>
					</linearGradient>
					<path class="st12" d="M228.5,182.2c0,0.7-0.5,1.2-1.2,1.2c-0.7,0-1.2-0.5-1.2-1.2c0-0.7,0.5-1.2,1.2-1.2
						C228,181,228.5,181.6,228.5,182.2z"/>
					<linearGradient id="SVGID_7_" gradientUnits="userSpaceOnUse" x1="63.5963" y1="182.22" x2="258.4868" y2="182.22">
						<stop  offset="0" style="stop-color:#FFB979"/>
						<stop  offset="1" style="stop-color:#FF3E57"/>
					</linearGradient>
					<path class="st13" d="M201.6,182.2c0,0.7-0.5,1.2-1.2,1.2c-0.7,0-1.2-0.5-1.2-1.2c0-0.7,0.5-1.2,1.2-1.2
						C201.1,181,201.6,181.6,201.6,182.2z"/>
					<linearGradient id="SVGID_8_" gradientUnits="userSpaceOnUse" x1="63.5981" y1="182.22" x2="258.4886" y2="182.22">
						<stop  offset="0" style="stop-color:#FFB979"/>
						<stop  offset="1" style="stop-color:#FF3E57"/>
					</linearGradient>
					<path class="st14" d="M255.3,182.2c0,0.7-0.5,1.2-1.2,1.2c-0.7,0-1.2-0.5-1.2-1.2c0-0.7,0.5-1.2,1.2-1.2
						C254.8,181,255.3,181.6,255.3,182.2z"/>
				</g>
				<g>
					<g>
						<path class="st15" d="M79.6,182.2c0,0.4-0.4,0.8-0.8,0.8c-0.4,0-0.8-0.4-0.8-0.8c0-0.4,0.4-0.8,0.8-0.8
							C79.2,181.4,79.6,181.8,79.6,182.2z"/>
						<circle class="st15" cx="105.7" cy="182.2" r="0.8"/>
						<path class="st15" d="M133.5,182.2c0,0.4-0.4,0.8-0.8,0.8c-0.4,0-0.8-0.4-0.8-0.8c0-0.4,0.4-0.8,0.8-0.8
							C133.1,181.4,133.5,181.8,133.5,182.2z"/>
						<circle class="st15" cx="159.7" cy="182.2" r="0.8"/>
						<path class="st15" d="M187.4,182.2c0,0.4-0.4,0.8-0.8,0.8c-0.4,0-0.8-0.4-0.8-0.8c0-0.4,0.4-0.8,0.8-0.8
							C187.1,181.4,187.4,181.8,187.4,182.2z"/>
						<path class="st15" d="M214.4,182.2c0,0.4-0.4,0.8-0.8,0.8c-0.4,0-0.8-0.4-0.8-0.8c0-0.4,0.4-0.8,0.8-0.8
							C214,181.4,214.4,181.8,214.4,182.2z"/>
						<circle class="st15" cx="240.5" cy="182.2" r="0.8"/>
					</g>
				</g>
			</g>
		</g>
		<g>
			<linearGradient id="SVGID_9_" gradientUnits="userSpaceOnUse" x1="68.0546" y1="156.7753" x2="255.1465" y2="156.7753">
				<stop  offset="0" style="stop-color:#FFB979"/>
				<stop  offset="1" style="stop-color:#FF3E57"/>
			</linearGradient>
			<path class="st16" d="M69.1,176.7l17.6-28.8c3.9-6.9,11.2-11.1,19.1-11.1h8.9c4.1,0,8.2,1.2,11.7,3.4l14.9,9.4
				c3.5,2.2,7.6,3.4,11.7,3.4h14c5,0,9.9-1.7,13.8-4.9l6.4-5.2c7.8-6.3,18.8-6.5,26.8-0.6l0,0c22.8,12.7,40.1-5.3,40.1-5.3"/>
			<linearGradient id="SVGID_10_" gradientUnits="userSpaceOnUse" x1="77.8052" y1="140.9854" x2="205.8113" y2="140.9854">
				<stop  offset="0" style="stop-color:#FFB979"/>
				<stop  offset="1" style="stop-color:#FF3E57"/>
			</linearGradient>
			<path class="st17" d="M95.9,141c0,1.6-1.3,2.9-2.9,2.9c-1.6,0-2.9-1.3-2.9-2.9s1.3-2.9,2.9-2.9C94.6,138,95.9,139.4,95.9,141z"/>
			<linearGradient id="SVGID_11_" gradientUnits="userSpaceOnUse" x1="67.2661" y1="137.3411" x2="255.3188" y2="137.3411">
				<stop  offset="0" style="stop-color:#FFB979"/>
				<stop  offset="1" style="stop-color:#FF3E57"/>
			</linearGradient>
			<path class="st18" d="M122.8,137.3c0,1.6-1.3,2.9-2.9,2.9c-1.6,0-2.9-1.3-2.9-2.9c0-1.6,1.3-2.9,2.9-2.9
				C121.5,134.4,122.8,135.7,122.8,137.3z"/>
			<linearGradient id="SVGID_12_" gradientUnits="userSpaceOnUse" x1="65.9122" y1="152.1637" x2="253.5336" y2="152.1637">
				<stop  offset="0" style="stop-color:#FFB979"/>
				<stop  offset="1" style="stop-color:#FF3E57"/>
			</linearGradient>
			<path class="st19" d="M149.7,152.2c0,1.6-1.3,2.9-2.9,2.9c-1.6,0-2.9-1.3-2.9-2.9s1.3-2.9,2.9-2.9
				C148.3,149.2,149.7,150.5,149.7,152.2z"/>
			<linearGradient id="SVGID_13_" gradientUnits="userSpaceOnUse" x1="67.8974" y1="152.1637" x2="255.5188" y2="152.1637">
				<stop  offset="0" style="stop-color:#FFB979"/>
				<stop  offset="1" style="stop-color:#FF3E57"/>
			</linearGradient>
			<path class="st20" d="M176.5,152.2c0,1.6-1.3,2.9-2.9,2.9c-1.6,0-2.9-1.3-2.9-2.9s1.3-2.9,2.9-2.9
				C175.2,149.2,176.5,150.5,176.5,152.2z"/>
			<linearGradient id="SVGID_14_" gradientUnits="userSpaceOnUse" x1="67.3782" y1="138.5095" x2="254.9996" y2="138.5095">
				<stop  offset="0" style="stop-color:#FFB979"/>
				<stop  offset="1" style="stop-color:#FF3E57"/>
			</linearGradient>
			<path class="st21" d="M203.4,138.5c0,1.6-1.3,2.9-2.9,2.9c-1.6,0-2.9-1.3-2.9-2.9s1.3-2.9,2.9-2.9
				C202.1,135.6,203.4,136.9,203.4,138.5z"/>
			<linearGradient id="SVGID_15_" gradientUnits="userSpaceOnUse" x1="67.8605" y1="146.5825" x2="255.4819" y2="146.5825">
				<stop  offset="0" style="stop-color:#FFB979"/>
				<stop  offset="1" style="stop-color:#FF3E57"/>
			</linearGradient>
			<path class="st22" d="M230.2,146.6c0,1.6-1.3,2.9-2.9,2.9c-1.6,0-2.9-1.3-2.9-2.9s1.3-2.9,2.9-2.9
				C228.9,143.6,230.2,145,230.2,146.6z"/>
			<linearGradient id="SVGID_16_" gradientUnits="userSpaceOnUse" x1="68.4838" y1="138.0696" x2="256.1083" y2="138.0696">
				<stop  offset="0" style="stop-color:#FFB979"/>
				<stop  offset="1" style="stop-color:#FF3E57"/>
			</linearGradient>
			<circle class="st23" cx="254" cy="138.1" r="2.9"/>
		</g>
	</g>
</g>
</svg>
