<?xml version="1.0" encoding="utf-8"?>
<!-- Generator: Adobe Illustrator 25.0.0, SVG Export Plug-In . SVG Version: 6.00 Build 0)  -->
<svg version="1.1" id="Layer_1" xmlns="http://www.w3.org/2000/svg" xmlns:xlink="http://www.w3.org/1999/xlink" x="0px" y="0px"
	 viewBox="0 0 1224.6 1190.5" style="enable-background:new 0 0 1224.6 1190.5;" xml:space="preserve">
<style type="text/css">
	.st0{fill:#212121;}
	.st1{fill:#002F87;}
	.st2{clip-path:url(#SVGID_2_);}
	.st3{fill:#D8D8D8;}
	.st4{fill:#F8FFFB;}
</style>
<g>
	<path class="st0" d="M85.6,284.9h1053.5c2.3,0,4.1,1.5,4.1,3.2v0c0,1.8-1.8,3.2-4.1,3.2H85.6c-2.3,0-4.1-1.5-4.1-3.2v0
		C81.5,286.3,83.3,284.9,85.6,284.9z"/>
	<path class="st0" d="M85.5,914.2H1139c2.3,0,4.1,1.5,4.1,3.2l0,0c0,1.8-1.8,3.2-4.1,3.2H85.5c-2.3,0-4.1-1.5-4.1-3.2l0,0
		C81.4,915.6,83.3,914.2,85.5,914.2z"/>
</g>
<g>
	<g>
		<path class="st1" d="M436,553.3c-4.5,2.5-9.8,4-15.4,4c-17.5,0-31.7-14.2-31.7-31.7s14.2-31.7,31.7-31.7c9.7,0,18.4,4.4,24.2,11.2
			l16.7-29.1c-11.1-9.2-25.3-14.7-40.9-14.7c-35.5,0-64.3,28.8-64.3,64.3c0,34.4,27,62.4,60.9,64.2l18.7-32v49.4l35.1-7.5v-77.4
			l-35.1,7.5L436,553.3L436,553.3z"/>
		<path class="st1" d="M548.1,461.2c-35.5,0-64.3,28.8-64.3,64.3s28.8,64.3,64.3,64.3s64.3-28.8,64.3-64.3
			C612.4,490,583.6,461.2,548.1,461.2z M548.1,557.3c-17.5,0-31.7-14.2-31.7-31.7s14.2-31.7,31.7-31.7s31.7,14.2,31.7,31.7
			C579.9,543,565.6,557.3,548.1,557.3z"/>
		<path class="st1" d="M699.2,464.2v42c0,11.3-9.2,20.5-20.5,20.5s-20.5-9.2-20.5-20.5l-0.1-42.1h-32.7v42.1
			c0,23.8,15.6,44,37.2,50.8v29.4h32.6v-29.5c21.4-7,36.8-27,36.8-50.7l-0.2-42.1h-32.6V464.2z"/>
		<path class="st1" d="M805.3,462.5c-31.9,0-57.8,25.9-57.8,57.8v66.2h32.6v-21.3h50.5v21.3h32.5v-66.2
			C863.1,488.4,837.2,462.5,805.3,462.5z M830.5,532.3H780v-12c0-14,11.3-25.3,25.3-25.3c13.9,0,25.3,11.3,25.3,25.3L830.5,532.3
			L830.5,532.3z"/>
	</g>
	<g>
		<path class="st1" d="M199.7,620.5H262c15.3,0,26.1,3.8,33.2,10.9c4.9,4.9,7.8,11.3,7.8,19.6v0.3c0,14.1-8,22.4-18.8,27.1
			c14.8,4.9,24.1,13.2,24.1,29.7v0.3c0,20.8-17,33.5-46,33.5h-62.6V620.5z M253.7,669c10.2,0,16-3.5,16-10.6v-0.3
			c0-6.6-5.2-10.4-15.3-10.4h-21.9v21.4L253.7,669L253.7,669z M258.5,715c10.2,0,16.2-4,16.2-11.1v-0.3c0-6.6-5.2-10.9-16.5-10.9
			h-25.7v22.4L258.5,715L258.5,715z"/>
		<path class="st1" d="M365.9,619.6h32.4L450.1,742H414l-8.9-21.7h-46.9l-8.7,21.7h-35.4L365.9,619.6z M395.4,694.1l-13.5-34.6
			l-13.7,34.6H395.4z"/>
		<path class="st1" d="M451,724l18.8-22.4c12,9.6,25.4,14.6,39.4,14.6c9,0,13.9-3.1,13.9-8.3v-0.3c0-5-4-7.8-20.5-11.6
			c-25.9-5.9-45.9-13.2-45.9-38.2v-0.3c0-22.6,17.9-38.9,47.1-38.9c20.7,0,36.8,5.6,50,16.2L537,658.6c-11.1-7.8-23.3-12-34-12
			c-8.2,0-12.2,3.5-12.2,7.8v0.3c0,5.6,4.2,8,21,11.8c28,6.1,45.3,15.1,45.3,37.9v0.3c0,24.8-19.6,39.6-49.2,39.6
			C486.4,744.2,465.9,737.4,451,724z"/>
		<path class="st1" d="M573.4,620.5h33.7v49.3l41.9-49.3h39.9l-46,52.3l47.6,69.3H650l-30.6-45.2l-12.3,13.7V742h-33.7V620.5z"/>
		<path class="st1" d="M700.2,620.5H798v28.7h-64.4v18.4H792v26.6h-58.4v19.3h65.3v28.7h-98.6L700.2,620.5L700.2,620.5z"/>
		<path class="st1" d="M845.7,650h-36.5v-29.5h106.6V650h-36.5v92h-33.7v-92H845.7z"/>
		<path class="st1" d="M918.8,724l18.8-22.4c12,9.6,25.4,14.6,39.4,14.6c9,0,13.9-3.1,13.9-8.3v-0.3c0-5-4-7.8-20.5-11.6
			c-25.9-5.9-45.9-13.2-45.9-38.2v-0.3c0-22.6,17.9-38.9,47.1-38.9c20.7,0,36.8,5.6,50,16.2l-16.8,23.8c-11.1-7.8-23.3-12-34-12
			c-8.2,0-12.2,3.5-12.2,7.8v0.3c0,5.6,4.2,8,21,11.8c28,6.1,45.3,15.1,45.3,37.9v0.3c0,24.8-19.6,39.6-49.2,39.6
			C954.3,744.2,933.8,737.4,918.8,724z"/>
	</g>
</g>
<g>
	
		<image style="overflow:visible;opacity:0.87;" width="259" height="259" xlink:href="84A4FC0E52954090.png"  transform="matrix(1 0 0 1 483 -16.9451)">
	</image>
	<g>
		<circle class="st0" cx="612.3" cy="112.8" r="80.8"/>
	</g>
</g>
<g>
	<defs>
		<path id="SVGID_1_" d="M610.4,94.6l-12.5,2.9L594,81.6l21.7-6.1h14.9v74.7h-20.2V94.6z"/>
	</defs>
	<clipPath id="SVGID_2_">
		<use xlink:href="#SVGID_1_"  style="overflow:visible;"/>
	</clipPath>
	<g class="st2">
		<path class="st3" d="M610.4,94.6l-12.5,2.9L594,81.6l21.7-6.1h14.9v74.7h-20.2V94.6z"/>
	</g>
	<g class="st2">
		<path class="st4" d="M595.8,94.6l-15.4,2.9l-4.8-15.9l26.7-6.1h18.4v74.7h-24.9V94.6z"/>
	</g>
</g>
<circle cx="612.3" cy="1133.7" r="8.6"/>
<g>
	<path class="st0" d="M326.2,1014.3h-13.4v-28.1h13.1c5.7,0,9.3,2.9,9.3,7.3v0.1c0,3.2-1.7,4.9-3.7,6.1c3.3,1.2,5.3,3.1,5.3,6.9v0.1
		C336.7,1011.7,332.5,1014.3,326.2,1014.3z M329,994.5c0-1.8-1.4-2.9-4.1-2.9h-6.1v5.9h5.7C327.2,997.6,329,996.7,329,994.5
		L329,994.5z M330.5,1005.8c0-1.9-1.4-3.1-4.6-3.1h-7.1v6.2h7.3C328.9,1008.9,330.5,1007.9,330.5,1005.8L330.5,1005.8z"/>
	<path class="st0" d="M353.7,1014.3v-2.3c-1.5,1.6-3.5,2.7-6.5,2.7c-4.1,0-7.4-2.3-7.4-6.6v-0.1c0-4.7,3.6-6.9,8.7-6.9
		c2.2,0,3.7,0.4,5.3,0.9v-0.4c0-2.5-1.6-3.9-4.6-3.9c-2.3,0-4,0.4-5.9,1.2l-1.5-4.7c2.4-1,4.7-1.7,8.4-1.7c6.7,0,9.6,3.5,9.6,9.3
		v12.5H353.7z M353.9,1005.6c-1-0.5-2.4-0.8-3.9-0.8c-2.6,0-4.2,1-4.2,3v0.1c0,1.6,1.4,2.6,3.3,2.6c2.9,0,4.8-1.6,4.8-3.8V1005.6z"
		/>
	<path class="st0" d="M372,1014.7c-3.7,0-6.3-1.5-6.3-6.5V998h-2.6v-5.2h2.6v-5.5h6.1v5.5h5.1v5.2h-5.1v9.2c0,1.4,0.6,2.1,2,2.1
		c1.1,0,2.1-0.3,3-0.8v4.9C375.5,1014.2,374,1014.7,372,1014.7z"/>
	<path class="st0" d="M394,998.8c-4.1,0-6.5,2.4-6.5,7.6v8h-6.1v-21.5h6.1v4.3c1.2-3,3.3-4.9,6.9-4.7v6.4H394z"/>
	<path class="st0" d="M417.6,1005.7h-15c0.6,2.8,2.5,4.2,5.3,4.2c2,0,3.5-0.6,5.2-2.2l3.5,3.1c-2,2.5-4.9,4-8.8,4
		c-6.5,0-11.2-4.5-11.2-11.1v-0.1c0-6.1,4.4-11.2,10.6-11.2c7.2,0,10.5,5.6,10.5,11.7v0.1C417.6,1004.7,417.6,1005.1,417.6,1005.7z
		 M407.2,997.3c-2.5,0-4.2,1.8-4.7,4.6h9.2C411.3,999.1,409.7,997.3,407.2,997.3z"/>
	<path class="st0" d="M429.7,1014.7c-3,0-6.4-1-9.2-3.3l2.6-4c2.3,1.7,4.8,2.6,6.8,2.6c1.8,0,2.6-0.6,2.6-1.6v-0.1
		c0-1.3-2.1-1.8-4.5-2.5c-3-0.9-6.4-2.3-6.4-6.5v-0.1c0-4.4,3.5-6.8,7.9-6.8c2.7,0,5.7,0.9,8,2.5l-2.3,4.2c-2.1-1.2-4.3-2-5.8-2
		c-1.5,0-2.2,0.6-2.2,1.5v0.1c0,1.2,2,1.8,4.4,2.6c3,1,6.5,2.5,6.5,6.4v0.1C438,1012.5,434.4,1014.7,429.7,1014.7z"/>
	<path class="st0" d="M468.2,1014.8c-8.3,0-14.4-6.4-14.4-14.5v-0.1c0-8,6-14.5,14.7-14.5c5.3,0,8.5,1.8,11.1,4.3l-3.9,4.5
		c-2.2-2-4.4-3.2-7.2-3.2c-4.7,0-8.2,3.9-8.2,8.8v0.1c0,4.8,3.3,8.8,8.2,8.8c3.2,0,5.2-1.3,7.4-3.3l3.9,4
		C476.8,1012.9,473.6,1014.8,468.2,1014.8z"/>
	<path class="st0" d="M496.7,998.8c-4.1,0-6.5,2.4-6.5,7.6v8H484v-21.5h6.1v4.3c1.2-3,3.3-4.9,6.9-4.7v6.4H496.7z"/>
	<path class="st0" d="M520.2,1005.7h-15c0.6,2.8,2.5,4.2,5.3,4.2c2,0,3.5-0.6,5.2-2.2l3.5,3.1c-2,2.5-4.9,4-8.8,4
		c-6.5,0-11.2-4.5-11.2-11.1v-0.1c0-6.1,4.4-11.2,10.6-11.2c7.2,0,10.5,5.6,10.5,11.7v0.1C520.3,1004.7,520.2,1005.1,520.2,1005.7z
		 M509.8,997.3c-2.5,0-4.2,1.8-4.7,4.6h9.2C514,999.1,512.4,997.3,509.8,997.3z"/>
	<path class="st0" d="M537.4,1014.3v-2.3c-1.5,1.6-3.5,2.7-6.5,2.7c-4.1,0-7.4-2.3-7.4-6.6v-0.1c0-4.7,3.6-6.9,8.7-6.9
		c2.2,0,3.7,0.4,5.3,0.9v-0.4c0-2.5-1.6-3.9-4.6-3.9c-2.3,0-4,0.4-5.9,1.2l-1.5-4.7c2.4-1,4.7-1.7,8.4-1.7c6.7,0,9.6,3.5,9.6,9.3
		v12.5H537.4z M537.6,1005.6c-1-0.5-2.4-0.8-3.9-0.8c-2.6,0-4.2,1-4.2,3v0.1c0,1.6,1.4,2.6,3.3,2.6c2.9,0,4.8-1.6,4.8-3.8V1005.6z"
		/>
	<path class="st0" d="M555.7,1014.7c-3.7,0-6.3-1.5-6.3-6.5V998h-2.6v-5.2h2.6v-5.5h6.1v5.5h5.1v5.2h-5.1v9.2c0,1.4,0.6,2.1,2,2.1
		c1.1,0,2.1-0.3,3-0.8v4.9C559.2,1014.2,557.7,1014.7,555.7,1014.7z"/>
	<path class="st0" d="M565.2,990.4V985h6.4v5.4H565.2z M565.3,1014.3v-21.5h6.1v21.5H565.3z"/>
	<path class="st0" d="M589.3,1014.5h-5.5l-8.5-21.7h6.5l4.8,14.4l4.9-14.4h6.3L589.3,1014.5z"/>
	<path class="st0" d="M620.1,1005.7h-15c0.6,2.8,2.5,4.2,5.3,4.2c2,0,3.5-0.6,5.2-2.2l3.5,3.1c-2,2.5-4.9,4-8.8,4
		c-6.5,0-11.2-4.5-11.2-11.1v-0.1c0-6.1,4.4-11.2,10.6-11.2c7.2,0,10.5,5.6,10.5,11.7v0.1C620.2,1004.7,620.1,1005.1,620.1,1005.7z
		 M609.7,997.3c-2.5,0-4.2,1.8-4.7,4.6h9.2C613.9,999.1,612.3,997.3,609.7,997.3z"/>
	<path class="st0" d="M647.4,1014.7c-4.3,0-8.6-1.5-11.9-4.5l3.7-4.4c2.5,2.1,5.2,3.4,8.4,3.4c2.5,0,4.1-1,4.1-2.7v-0.1
		c0-1.6-1-2.4-5.7-3.6c-5.7-1.4-9.3-3-9.3-8.6v-0.1c0-5.1,4.1-8.5,9.8-8.5c4.1,0,7.6,1.3,10.4,3.6l-3.2,4.7
		c-2.5-1.7-4.9-2.8-7.3-2.8c-2.4,0-3.6,1.1-3.6,2.5v0.1c0,1.8,1.2,2.5,6.1,3.7c5.7,1.5,8.9,3.5,8.9,8.4v0.1
		C657.7,1011.6,653.5,1014.7,647.4,1014.7z"/>
	<path class="st0" d="M682.5,1005.7h-15c0.6,2.8,2.5,4.2,5.3,4.2c2,0,3.5-0.6,5.2-2.2l3.5,3.1c-2,2.5-4.9,4-8.8,4
		c-6.5,0-11.2-4.5-11.2-11.1v-0.1c0-6.1,4.4-11.2,10.6-11.2c7.2,0,10.5,5.6,10.5,11.7v0.1C682.5,1004.7,682.5,1005.1,682.5,1005.7z
		 M672.1,997.3c-2.5,0-4.2,1.8-4.7,4.6h9.2C676.2,999.1,674.6,997.3,672.1,997.3z"/>
	<path class="st0" d="M699.7,998.8c-4.1,0-6.5,2.4-6.5,7.6v8h-6.1v-21.5h6.1v4.3c1.2-3,3.3-4.9,6.9-4.7v6.4H699.7z"/>
	<path class="st0" d="M715.9,1014.5h-5.5l-8.5-21.7h6.5l4.8,14.4l4.9-14.4h6.3L715.9,1014.5z"/>
	<path class="st0" d="M728.1,990.4V985h6.4v5.4H728.1z M728.2,1014.3v-21.5h6.1v21.5H728.2z"/>
	<path class="st0" d="M750.2,1014.8c-6.5,0-11.2-5-11.2-11.1v-0.1c0-6.1,4.7-11.2,11.3-11.2c4.1,0,6.6,1.4,8.6,3.6l-3.7,4
		c-1.4-1.4-2.7-2.4-4.9-2.4c-3.1,0-5.2,2.7-5.2,5.9v0.1c0,3.3,2.1,5.9,5.5,5.9c2,0,3.5-0.9,4.9-2.3l3.6,3.6
		C756.9,1013.1,754.5,1014.8,750.2,1014.8z"/>
	<path class="st0" d="M782.4,1005.7h-15c0.6,2.8,2.5,4.2,5.3,4.2c2,0,3.5-0.6,5.2-2.2l3.5,3.1c-2,2.5-4.9,4-8.8,4
		c-6.5,0-11.2-4.5-11.2-11.1v-0.1c0-6.1,4.4-11.2,10.6-11.2c7.2,0,10.5,5.6,10.5,11.7v0.1C782.5,1004.7,782.5,1005.1,782.4,1005.7z
		 M772,997.3c-2.5,0-4.2,1.8-4.7,4.6h9.2C776.2,999.1,774.6,997.3,772,997.3z"/>
	<path class="st0" d="M794.6,1014.7c-3,0-6.4-1-9.2-3.3l2.6-4c2.3,1.7,4.8,2.6,6.8,2.6c1.8,0,2.6-0.6,2.6-1.6v-0.1
		c0-1.3-2.1-1.8-4.5-2.5c-3-0.9-6.4-2.3-6.4-6.5v-0.1c0-4.4,3.5-6.8,7.9-6.8c2.7,0,5.7,0.9,8,2.5l-2.3,4.2c-2.1-1.2-4.3-2-5.8-2
		c-1.5,0-2.2,0.6-2.2,1.5v0.1c0,1.2,2,1.8,4.4,2.6c3,1,6.5,2.5,6.5,6.4v0.1C802.8,1012.5,799.2,1014.7,794.6,1014.7z"/>
	<path class="st0" d="M809.4,1014.3h-2.5v-6.4h6.5v5.4c0,5.3-2.7,7.4-7.4,7.5l-0.5-2.5C808.3,1018,809.6,1016.6,809.4,1014.3z"/>
	<path class="st0" d="M831.6,1014.3v-28.1h6.2v28.1H831.6z"/>
	<path class="st0" d="M864.6,1014.3L851,996.4v17.9h-6.1v-28.1h5.7l13.2,17.3v-17.3h6.1v28.1H864.6z"/>
	<path class="st0" d="M889.8,1014.8c-8.3,0-14.4-6.4-14.4-14.5v-0.1c0-8,6-14.5,14.7-14.5c5.3,0,8.5,1.8,11.1,4.3l-3.9,4.5
		c-2.2-2-4.4-3.2-7.2-3.2c-4.7,0-8.2,3.9-8.2,8.8v0.1c0,4.8,3.3,8.8,8.2,8.8c3.2,0,5.2-1.3,7.4-3.3l3.9,4
		C898.4,1012.9,895.2,1014.8,889.8,1014.8z"/>
	<path class="st0" d="M905.3,1014.3v-6.4h6.5v6.4H905.3z"/>
</g>
</svg>
