<?xml version="1.0" encoding="utf-8"?>
<!-- Generator: Adobe Illustrator 24.3.0, SVG Export Plug-In . SVG Version: 6.00 Build 0)  -->
<svg version="1.1" id="Layer_1" xmlns="http://www.w3.org/2000/svg" xmlns:xlink="http://www.w3.org/1999/xlink" x="0px" y="0px"
	 viewBox="0 0 305 142" style="enable-background:new 0 0 305 142;" xml:space="preserve">
<style type="text/css">
	.st0{fill:#FFFFFF;}
</style>
<rect x="6" y="103.6" class="st0" width="293" height="4"/>
<g>
	<g>
		<path class="st0" d="M54,62.6c-2.4,1.3-5.2,2.1-8.2,2.1c-9.3,0-16.8-7.5-16.8-16.8s7.5-16.8,16.8-16.8c5.1,0,9.8,2.3,12.8,6
			l8.8-15.4c-5.9-4.9-13.4-7.8-21.7-7.8c-18.8,0-34.1,15.3-34.1,34.1c0,18.2,14.3,33.1,32.3,34l9.9-17v26.2l18.6-4v-41l-18.6,4v12.4
			H54z"/>
		<path class="st0" d="M113.4,13.9c-18.8,0-34.1,15.3-34.1,34.1s15.2,34.1,34.1,34.1c18.8,0,34.1-15.2,34.1-34.1
			S132.2,13.9,113.4,13.9z M113.4,64.7c-9.3,0-16.8-7.5-16.8-16.8s7.5-16.8,16.8-16.8s16.8,7.5,16.8,16.8
			C130.2,57.2,122.7,64.7,113.4,64.7z"/>
		<path class="st0" d="M193.5,15.4v22.3c0,6-4.9,10.9-10.9,10.9s-10.9-4.9-10.9-10.9V15.4h-17.3v22.3c0,12.6,8.3,23.3,19.7,26.9
			v15.6h17.3V64.6c11.3-3.7,19.5-14.3,19.5-26.9l-0.1-22.3C210.8,15.4,193.5,15.4,193.5,15.4z"/>
		<path class="st0" d="M249.7,14.5c-16.9,0-30.6,13.7-30.6,30.6v35.1h17.2V68.9h26.8v11.3h17.2V45.1
			C280.3,28.2,266.6,14.5,249.7,14.5z M263.1,51.5h-26.8v-6.3c0-7.4,6-13.4,13.4-13.4c7.4,0,13.4,6,13.4,13.4V51.5z"/>
		<g>
			<path class="st0" d="M288.2,70.5c-2.8,0-5.1,2.3-5.1,5.1c0,2.8,2.3,5.1,5.1,5.1c2.8,0,5.1-2.3,5.1-5.1
				C293.2,72.7,291,70.5,288.2,70.5z M288.2,80.2c-2.6,0-4.6-2.1-4.6-4.6c0-2.6,2-4.6,4.6-4.6s4.5,2,4.5,4.6
				C292.7,78.1,290.8,80.2,288.2,80.2z"/>
			<path class="st0" d="M290.5,74.2c0-1.1-0.6-1.7-2-1.7h-2.3v6h0.5v-2.8h1.6l1.8,2.8h0.6l-1.8-2.8
				C289.8,75.7,290.5,75.2,290.5,74.2z M288.1,75.3h-1.3V73h1.7c0.7,0,1.5,0.3,1.5,1.2C290,75.2,289,75.3,288.1,75.3z"/>
		</g>
	</g>
</g>
</svg>
